<svg xmlns="http://www.w3.org/2000/svg" width="66.041" height="65.851" viewBox="0 0 66.041 65.851">
  <g id="그룹_684" data-name="그룹 684" transform="translate(1 1)">
    <g id="그룹_679" data-name="그룹 679" transform="translate(9.01 0)">
      <path id="패스_210" data-name="패스 210" d="M5961.662,1382.768a1,1,0,0,1-.995-.995v-22.016a21.02,21.02,0,1,0-42.04,0v22.016a1,1,0,0,1-1.991,0v-22.016a23.011,23.011,0,0,1,46.022,0v22.016A1,1,0,0,1,5961.662,1382.768Z" transform="translate(-5916.636 -1336.746)" fill="none" stroke="#64352d" stroke-width="2"/>
    </g>
    <g id="그룹_680" data-name="그룹 680" transform="translate(0 27.029)">
      <path id="패스_211" data-name="패스 211" d="M5921.151,1372.206h-5.193a4.817,4.817,0,0,1-4.812-4.811v-9.371a4.817,4.817,0,0,1,4.812-4.811h5.193a1,1,0,0,1,1,1v17A1,1,0,0,1,5921.151,1372.206Zm-5.193-17a2.822,2.822,0,0,0-2.819,2.82v9.371a2.821,2.821,0,0,0,2.819,2.82h4.2V1355.2Z" transform="translate(-5911.146 -1353.213)" fill="none" stroke="#64352d" stroke-width="2"/>
    </g>
    <g id="그룹_681" data-name="그룹 681" transform="translate(53.041 27.029)">
      <path id="패스_212" data-name="패스 212" d="M5949.649,1372.206h-5.192a1,1,0,0,1-1-.995v-17a1,1,0,0,1,1-1h5.192a4.816,4.816,0,0,1,4.812,4.811v9.371A4.816,4.816,0,0,1,5949.649,1372.206Zm-4.2-1.991h4.2a2.822,2.822,0,0,0,2.821-2.82v-9.371a2.823,2.823,0,0,0-2.821-2.82h-4.2Z" transform="translate(-5943.461 -1353.213)" fill="none" stroke="#64352d" stroke-width="2"/>
    </g>
    <g id="그룹_682" data-name="그룹 682" transform="translate(24.462 55.225)">
      <path id="패스_213" data-name="패스 213" d="M5930.363,1379.016a4.313,4.313,0,1,1,4.313-4.312A4.319,4.319,0,0,1,5930.363,1379.016Zm0-6.635a2.322,2.322,0,1,0,2.321,2.323A2.324,2.324,0,0,0,5930.363,1372.382Z" transform="translate(-5926.049 -1370.391)" fill="none" stroke="#64352d" stroke-width="2"/>
    </g>
    <g id="그룹_683" data-name="그룹 683" transform="translate(9.01 44.031)">
      <path id="패스_214" data-name="패스 214" d="M5933.084,1380.074h-.943a15.524,15.524,0,0,1-15.505-15.507,1,1,0,1,1,1.991,0,13.53,13.53,0,0,0,13.514,13.515h.943a1,1,0,0,1,0,1.991Z" transform="translate(-5916.636 -1363.571)" fill="none" stroke="#64352d" stroke-width="2"/>
    </g>
  </g>
</svg>
