<?xml version="1.0" encoding="utf-8"?>
<!-- Generator: Adobe Illustrator 22.1.0, SVG Export Plug-In . SVG Version: 6.00 Build 0)  -->
<svg version="1.1" id="Layer_1" xmlns="http://www.w3.org/2000/svg" xmlns:xlink="http://www.w3.org/1999/xlink" x="0px" y="0px"
	 viewBox="0 0 19.9 19.9" style="enable-background:new 0 0 19.9 19.9;" xml:space="preserve">
<style type="text/css">
	.st0{fill:#FFFFFF;}
</style>
<g id="그룹_664" transform="translate(-157.226 -227.195)">
	<path id="패스_204" class="st0" d="M173.1,239.3c0-0.6,0.5-1,1-1c0.6,0,1,0.5,1,1l0,0v6.9c0,0.6-0.4,1-1,1c0,0,0,0,0,0h-15.9
		c-0.6,0-1-0.4-1-1c0,0,0,0,0,0v-15.9c0-0.6,0.4-1,1-1c0,0,0,0,0,0h6.9c0.6,0,1,0.5,1,1s-0.5,1-1,1h-5.9v13.9h13.9L173.1,239.3z"/>
	<path id="패스_205" class="st0" d="M169.3,229.2c-0.6,0-1-0.5-1-1s0.5-1,1-1l0,0h6.9c0.2,0,0.3,0,0.5,0.1l0,0l0,0l0,0l0,0l0,0
		l0,0l0,0l0,0l0,0l0,0c0,0,0,0,0.1,0l0,0c0.1,0,0.1,0.1,0.1,0.1l0,0c0,0,0,0,0,0.1l0,0l0,0l0,0l0,0l0,0l0,0l0,0l0,0l0,0l0,0
		c0.1,0.1,0.1,0.3,0.1,0.5v6.9c0,0.6-0.5,1-1,1s-1-0.5-1-1v-4.5l-7.5,7.6c-0.4,0.4-1,0.4-1.4,0c-0.4-0.4-0.4-1,0-1.4l7.6-7.6
		L169.3,229.2z"/>
</g>
</svg>
