<svg xmlns="http://www.w3.org/2000/svg" width="56.913" height="56.912" viewBox="0 0 56.913 56.912">
  <path id="패스_206" data-name="패스 206" d="M224.457,252.912a28.456,28.456,0,1,1,28.457-28.456A28.457,28.457,0,0,1,224.457,252.912Zm0-5.395a23.062,23.062,0,1,0-23.062-23.062A23.062,23.062,0,0,0,224.457,247.518ZM221.8,234.3h4.136a.629.629,0,0,1,.629.629v4.136a.629.629,0,0,1-.629.629H221.8a.629.629,0,0,1-.629-.629v-4.136A.629.629,0,0,1,221.8,234.3Zm4.769-5.165v2.7h-5.395v-2.7c0-.4,0-.635.014-.929a5.791,5.791,0,0,1,.261-1.716,5.96,5.96,0,0,1,.432-1.027,3.989,3.989,0,0,1,1.056-1.245,7.879,7.879,0,0,1,2.535-1.19,7.935,7.935,0,0,0,2.591-1.694,3.858,3.858,0,0,0,1.379-2.632,4.99,4.99,0,0,0-9.98,0v2.7h-5.395v-2.7a10.385,10.385,0,0,1,20.769,0,9.046,9.046,0,0,1-3.007,6.494,13.23,13.23,0,0,1-4.606,2.935c-.27.093-.479.167-.643.229-.011.261-.012.444-.012.777Z" transform="translate(-196 -196)" fill="#64352d"/>
</svg>
