<svg xmlns="http://www.w3.org/2000/svg" width="54.526" height="44.122" viewBox="0 0 54.526 44.122">
  <g id="그룹_589" data-name="그룹 589" transform="translate(-2687.894 -1424.194)">
    <g id="그룹_579" data-name="그룹 579">
      <path id="패스_178" data-name="패스 178" d="M2741.612,1468.316H2688.7a.808.808,0,0,1-.808-.808V1425a.808.808,0,0,1,.808-.808h52.908a.808.808,0,0,1,.808.808v42.506A.808.808,0,0,1,2741.612,1468.316Zm-52.1-1.615H2740.8V1425.81h-51.292Z" fill="#64352d"/>
    </g>
    <g id="그룹_580" data-name="그룹 580">
      <path id="패스_179" data-name="패스 179" d="M2741.61,1434.029H2688.7a.808.808,0,0,1-.808-.808V1425a.808.808,0,0,1,.808-.808h52.908a.808.808,0,0,1,.808.808v8.218A.808.808,0,0,1,2741.61,1434.029Zm-52.1-1.616H2740.8v-6.6H2689.51Z" fill="#64352d"/>
    </g>
    <g id="그룹_584" data-name="그룹 584">
      <g id="그룹_581" data-name="그룹 581">
        <path id="패스_180" data-name="패스 180" d="M2692.8,1429.919a.887.887,0,0,1-.162-.016,1.422,1.422,0,0,1-.15-.044.972.972,0,0,1-.135-.075.624.624,0,0,1-.124-.1.77.77,0,0,1-.1-.119,1.48,1.48,0,0,1-.075-.14.533.533,0,0,1-.044-.151.792.792,0,0,1-.016-.161.746.746,0,0,1,.016-.156.492.492,0,0,1,.044-.151,1.061,1.061,0,0,1,.075-.14.759.759,0,0,1,.1-.124.852.852,0,0,1,.124-.1.721.721,0,0,1,.135-.07.87.87,0,0,1,.15-.048.775.775,0,0,1,.318,0,.763.763,0,0,1,.151.048.772.772,0,0,1,.14.07,1.228,1.228,0,0,1,.124.1,1.01,1.01,0,0,1,.1.124.658.658,0,0,1,.07.14.675.675,0,0,1,.049.151.746.746,0,0,1,.016.156.793.793,0,0,1-.016.161.764.764,0,0,1-.049.151.792.792,0,0,1-.07.14,1.04,1.04,0,0,1-.1.119.8.8,0,0,1-.124.1,1.046,1.046,0,0,1-.14.075,1.163,1.163,0,0,1-.151.044A.825.825,0,0,1,2692.8,1429.919Z" fill="#64352d"/>
      </g>
      <g id="그룹_582" data-name="그룹 582">
        <path id="패스_181" data-name="패스 181" d="M2699.331,1429.919a.776.776,0,0,1-.156-.016.758.758,0,0,1-.291-.119.8.8,0,0,1-.124-.1,1.04,1.04,0,0,1-.1-.119.811.811,0,0,1-.07-.14.715.715,0,0,1-.048-.151.73.73,0,0,1-.017-.161.687.687,0,0,1,.017-.156.637.637,0,0,1,.048-.151.67.67,0,0,1,.07-.14,1.01,1.01,0,0,1,.1-.124,1.228,1.228,0,0,1,.124-.1,1.438,1.438,0,0,1,.14-.07.743.743,0,0,1,.151-.048.8.8,0,0,1,.727.221,1.141,1.141,0,0,1,.1.124.734.734,0,0,1,.118.291.746.746,0,0,1,.016.156.792.792,0,0,1-.016.161c-.011.049-.027.1-.043.151s-.049.092-.075.14a1.185,1.185,0,0,1-.1.119.759.759,0,0,1-.124.1,1.034,1.034,0,0,1-.14.075,1.106,1.106,0,0,1-.151.044A.778.778,0,0,1,2699.331,1429.919Z" fill="#64352d"/>
      </g>
      <g id="그룹_583" data-name="그룹 583">
        <path id="패스_182" data-name="패스 182" d="M2696.067,1429.919a.786.786,0,0,1-.156-.016.678.678,0,0,1-.151-.044,1.093,1.093,0,0,1-.14-.075.79.79,0,0,1-.124-.1,1.156,1.156,0,0,1-.1-.119c-.026-.048-.053-.091-.075-.14a1.33,1.33,0,0,1-.043-.156.777.777,0,0,1-.016-.156.818.818,0,0,1,.016-.156,1.258,1.258,0,0,1,.043-.151,1.31,1.31,0,0,1,.075-.14,1.116,1.116,0,0,1,.1-.124.53.53,0,0,1,.124-.1.761.761,0,0,1,.14-.076.769.769,0,0,1,.614,0,.761.761,0,0,1,.14.076.7.7,0,0,1,.124.1,1.108,1.108,0,0,1,.1.124,1.038,1.038,0,0,1,.076.14,1.258,1.258,0,0,1,.043.151.818.818,0,0,1,.016.156.776.776,0,0,1-.016.156,1.33,1.33,0,0,1-.043.156,1.437,1.437,0,0,1-.076.14,1.147,1.147,0,0,1-.1.119,1.225,1.225,0,0,1-.124.1,1.093,1.093,0,0,1-.14.075.676.676,0,0,1-.151.044A.775.775,0,0,1,2696.067,1429.919Z" fill="#64352d"/>
      </g>
    </g>
    <g id="그룹_585" data-name="그룹 585">
      <path id="패스_183" data-name="패스 183" d="M2716.147,1440.892h-20.9a.808.808,0,0,1,0-1.616h20.9a.808.808,0,1,1,0,1.616Z" fill="#64352d"/>
    </g>
    <g id="그룹_586" data-name="그룹 586">
      <path id="패스_184" data-name="패스 184" d="M2734.511,1447.422h-39.259a.808.808,0,0,1,0-1.616h39.259a.808.808,0,1,1,0,1.616Z" fill="#64352d"/>
    </g>
    <g id="그룹_587" data-name="그룹 587">
      <path id="패스_185" data-name="패스 185" d="M2734.511,1453.951h-39.259a.808.808,0,0,1,0-1.616h39.259a.808.808,0,1,1,0,1.616Z" fill="#64352d"/>
    </g>
    <g id="그룹_588" data-name="그룹 588">
      <path id="패스_186" data-name="패스 186" d="M2734.511,1460.481h-26.2a.808.808,0,1,1,0-1.616h26.2a.808.808,0,1,1,0,1.616Z" fill="#64352d"/>
    </g>
  </g>
</svg>
