<?xml version="1.0" encoding="utf-8"?>
<!-- Generator: Adobe Illustrator 22.1.0, SVG Export Plug-In . SVG Version: 6.00 Build 0)  -->
<svg version="1.1" id="Layer_1" xmlns="http://www.w3.org/2000/svg" xmlns:xlink="http://www.w3.org/1999/xlink" x="0px" y="0px"
	 viewBox="0 0 7 13" style="enable-background:new 0 0 7 13;" xml:space="preserve">
<style type="text/css">
	.st0{fill:#FFFFFF;}
</style>
<g id="arrow-down-3101" transform="translate(65.308 -0.421) rotate(90)">
	<path id="패스_220" class="st0" d="M13.4,58.8c0-0.1,0-0.3-0.1-0.4c-0.2-0.2-0.5-0.2-0.7,0c0,0,0,0,0,0l-5.6,5.6l-5.6-5.6
		c-0.2-0.2-0.5-0.2-0.7,0c0,0,0,0,0,0c-0.2,0.2-0.2,0.5,0,0.7c0,0,0,0,0,0l6,6c0.2,0.2,0.5,0.2,0.7,0c0,0,0,0,0,0l6-6
		C13.4,59.1,13.4,59,13.4,58.8z"/>
</g>
</svg>
