<svg xmlns="http://www.w3.org/2000/svg" width="21.572" height="17.832" viewBox="0 0 21.572 17.832">
  <g id="layer1" transform="translate(0 0)">
    <path id="path4391" d="M147.811,399.372a10.636,10.636,0,0,0-7.657,3.333l1.926,2.041a7.914,7.914,0,0,1,11.492-.043l1.921-2.061a10.629,10.629,0,0,0-7.682-3.271Zm-5.732,5.374,0,0Z" transform="translate(-137.039 -395.312)" fill="#64352d"/>
    <path id="path4395" d="M66.548,281.371a15.1,15.1,0,0,0-10.769,4.6l1.948,2.025a12.317,12.317,0,0,1,17.633-.051l1.99-2.059A15.093,15.093,0,0,0,66.548,281.371Zm-8.82,6.621-.02.02Z" transform="translate(-55.779 -281.371)" fill="#64352d"/>
    <path id="path4381" d="M229.015,516.873a7.351,7.351,0,0,0-5.111,2.075l1.973,1.95a4.555,4.555,0,0,1,6.3-.021l1.965-1.968a7.35,7.35,0,0,0-5.126-2.036Zm-3.138,4.025,0,0Z" transform="translate(-218.247 -508.717)" fill="#64352d"/>
    <path id="path4411" d="M285.307,637.12a2.9,2.9,0,1,1,.009.008l2.041-2.058Z" transform="translate(-276.568 -620.137)" fill="#64352d"/>
  </g>
</svg>
