<svg id="Parking_lot" xmlns="http://www.w3.org/2000/svg" width="19.921" height="19.913" viewBox="0 0 19.921 19.913">
  <g id="그룹_512" data-name="그룹 512" transform="translate(0 0)">
    <path id="패스_152" data-name="패스 152" d="M29.921,13.317A3.318,3.318,0,0,0,26.6,10H13.317A3.318,3.318,0,0,0,10,13.317V26.6a3.318,3.318,0,0,0,3.317,3.317H26.6A3.318,3.318,0,0,0,29.913,26.6l.008-13.278Zm-1.663,12.7A2.262,2.262,0,0,1,26,28.283H13.9a2.262,2.262,0,0,1-2.262-2.262v-12.1A2.262,2.262,0,0,1,13.9,11.663H26a2.262,2.262,0,0,1,2.262,2.262v12.1Z" transform="translate(-10 -10)" fill="#777"/>
    <path id="패스_153" data-name="패스 153" d="M67.514,65.657a3.178,3.178,0,0,0-3.2-3.157c-.078,0-.164.009-.241.009H61.248v.009H59.8V74.075h1.62V68.788h2.637a1.189,1.189,0,0,0,.25.009A3.165,3.165,0,0,0,67.514,65.657Zm-3.456,1.518H61.42V64.122h2.637a1.59,1.59,0,0,1,1.474,1.509A1.623,1.623,0,0,1,64.058,67.175Zm7.4,4.054a.97.97,0,0,0-.19-.224l-.586-1.561a.8.8,0,0,0-.629-.449H67a.8.8,0,0,0-.629.449L65.781,71a.8.8,0,0,0-.19.224c-.052.1-.112.19-.112.888,0,.673.138.914.293,1l.129.069v.63c0,.207.052.267.241.267h.431c.19,0,.319,0,.319-.2v-.612h3.249v.612c0,.207.129.2.319.2h.431c.19,0,.241-.06.241-.267v-.63l.129-.069c.164-.086.293-.328.293-1C71.573,71.427,71.513,71.332,71.461,71.229ZM66.316,70.9c.026-.1.207-.88.284-1.147a.61.61,0,0,1,.5-.354h2.844a.61.61,0,0,1,.5.354c.078.267.259,1.044.293,1.147.034.121-.078.112-.078.112H66.393S66.281,71.022,66.316,70.9Zm.3,1.544A.388.388,0,1,1,67,72.057.385.385,0,0,1,66.617,72.445Zm2.517.216H67.919v-.207h1.215Zm0-.414H67.919V72.04h1.215Zm0-.405H67.919v-.207h1.215Zm1.31.6a.388.388,0,1,1,.379-.388A.385.385,0,0,1,70.444,72.445Z" transform="translate(-55.718 -58.196)" fill="#777"/>
  </g>
</svg>
