<svg xmlns="http://www.w3.org/2000/svg" width="10.407" height="14.194" viewBox="0 0 10.407 14.194">
  <path id="패스_78" data-name="패스 78" d="M8586.26,3325.362a5.116,5.116,0,0,0-5.684-1.416,5.354,5.354,0,0,0-2.547,2.03,4.909,4.909,0,0,0-.861,2.814,3.912,3.912,0,0,0,.036.464,8.833,8.833,0,0,0,1.507,3.333c.821,1.323,1.678,2.625,2.538,3.923l.464.7c.521.783.81.785,1.317.022,1.332-2,2.683-3.995,3.905-6.063A5.008,5.008,0,0,0,8586.26,3325.362Zm-3.89,5.342a2.115,2.115,0,1,1,2.114-2.115A2.116,2.116,0,0,1,8582.37,3330.7Z" transform="translate(-8577.167 -3323.608)" fill="#64352d"/>
</svg>
