<svg xmlns="http://www.w3.org/2000/svg" width="10.408" height="12.834" viewBox="0 0 10.408 12.834">
  <g id="그룹_511" data-name="그룹 511" transform="translate(0 0)">
    <g id="그룹_510" data-name="그룹 510" transform="translate(0 0)">
      <path id="패스_151" data-name="패스 151" d="M11016.37,3371.641a5.908,5.908,0,0,1-3.837-1.457,11.781,11.781,0,0,1-4.246-7.549,5.149,5.149,0,0,1,.536-2.583,2.561,2.561,0,0,1,1.479-1.092c1.3-.4,1.767-.03,1.943,1.294.061.448.063.906.145,1.35a1.4,1.4,0,0,1-.817,1.708c-.476.221-.631.562-.338,1.031.675,1.081,1.338,2.171,2.048,3.23a.859.859,0,0,0,1.471.186,1.238,1.238,0,0,1,1.546-.162c.427.217.872.4,1.3.612.517.26,1.112.447,1.077,1.213a1.967,1.967,0,0,1-1.049,1.847A6.335,6.335,0,0,1,11016.37,3371.641Z" transform="translate(-11008.27 -3358.807)" fill="#64352d"/>
    </g>
  </g>
</svg>
