<svg xmlns="http://www.w3.org/2000/svg" width="260.511" height="83.523" viewBox="0 0 260.511 83.523">
  <g id="그룹_157" data-name="그룹 157" transform="translate(-575.57 -1051.406)">
    <g id="그룹_25" data-name="그룹 25" transform="translate(668.971 1069.457)">
      <path id="패스_35" data-name="패스 35" d="M734.068,1083.386H762.5a1.06,1.06,0,0,1,1.06,1.06v5.613a1.06,1.06,0,0,1-1.06,1.06H742.873a1.059,1.059,0,0,0-1.06,1.059v6.9a1.06,1.06,0,0,0,1.06,1.059h16.69a1.059,1.059,0,0,1,1.06,1.059v5.613a1.06,1.06,0,0,1-1.06,1.06h-16.69a1.06,1.06,0,0,0-1.06,1.06v15.432a1.059,1.059,0,0,1-1.059,1.059h-6.687a1.059,1.059,0,0,1-1.059-1.059v-39.917A1.059,1.059,0,0,1,734.068,1083.386Z" transform="translate(-733.009 -1082.465)" fill="#64352d"/>
      <path id="패스_36" data-name="패스 36" d="M791.163,1114.927a16.657,16.657,0,1,1,16.651,17.06A16.9,16.9,0,0,1,791.163,1114.927Zm24.918,0a8.268,8.268,0,1,0-8.266,8.468A8.386,8.386,0,0,0,816.081,1114.927Z" transform="translate(-756.663 -1088.355)" fill="#64352d"/>
      <path id="패스_37" data-name="패스 37" d="M860.876,1098.889h5.848a1.059,1.059,0,0,1,1.06,1.06h0a1.055,1.055,0,0,0,1.649.88,13.056,13.056,0,0,1,7.223-1.959,1.062,1.062,0,0,1,1.072,1.063v6.363a1.067,1.067,0,0,1-1.141,1.054c-4.418-.224-8.383,2.806-8.383,7.555v15.755a1.059,1.059,0,0,1-1.06,1.059h-6.267a1.06,1.06,0,0,1-1.06-1.059v-30.712A1.06,1.06,0,0,1,860.876,1098.889Z" transform="translate(-784.587 -1088.763)" fill="#64352d"/>
      <path id="패스_38" data-name="패스 38" d="M895.757,1114.471c0-8.837,5.691-17.182,15.454-17.121,10.421.06,17.751,8.268,15.282,20.1a1.055,1.055,0,0,1-1.035.828H906.364a1.062,1.062,0,0,0-.955,1.531,8.384,8.384,0,0,0,7.419,4.238,12.028,12.028,0,0,0,6.545-1.917,1.064,1.064,0,0,1,1.324-.018l4.685,3.668a1.061,1.061,0,0,1,.087,1.6c-3.259,3.1-8.091,4.339-13.48,4.339C902.286,1131.714,895.757,1122.939,895.757,1114.471Zm21.263-3.621a1.063,1.063,0,0,0,1.048-1.242c-.363-2.139-2.287-4.71-6.557-4.71a6.367,6.367,0,0,0-6.466,4.605,1.065,1.065,0,0,0,1.023,1.347Z" transform="translate(-799.206 -1088.145)" fill="#64352d"/>
      <path id="패스_39" data-name="패스 39" d="M991.859,1108.774a16.657,16.657,0,1,1-33.3,0v-25.881a1.059,1.059,0,0,1,1.059-1.059h6.267a1.059,1.059,0,0,1,1.059,1.059v10.235a1.056,1.056,0,0,0,1.694.845,10.751,10.751,0,0,1,6.572-2.259A16.9,16.9,0,0,1,991.859,1108.774Zm-8.386,0a8.269,8.269,0,1,0-8.266,8.469A8.386,8.386,0,0,0,983.474,1108.774Z" transform="translate(-824.75 -1081.834)" fill="#64352d"/>
    </g>
    <g id="그룹_27" data-name="그룹 27" transform="translate(575.57 1051.406)">
      <g id="그룹_26" data-name="그룹 26">
        <ellipse id="타원_4" data-name="타원 4" cx="1.752" cy="1.745" rx="1.752" ry="1.745" transform="translate(52.785 24.399)" fill="#64352d"/>
        <path id="패스_40" data-name="패스 40" d="M594.654,1091.837s-7.852,12.631-.909,25.414a28.808,28.808,0,0,0,6.675,8.225c10.168,8.685,24.587,9.453,29.382,9.452a.173.173,0,0,0,.031-.342,37.994,37.994,0,0,1-17.718-8.461,22.74,22.74,0,0,1-7.855-16.727c-.279-13.084,7.884-21.807,12.586-25.452a7.056,7.056,0,0,0,2.309-8.578c-2.8-.7-3.365-4.747-3.477-6.338a.877.877,0,0,1,.578-.882,8.42,8.42,0,0,1,5.806-.156,7.708,7.708,0,0,1,3.226,2.141l.194-.011c.47-.026,1.774-.084,3.516-.068a50.677,50.677,0,0,1,7.649.611v.006s.1.014.291.043c.53.094,1.057.2,1.573.319a22.536,22.536,0,0,1,2.8.859c4.152,1.589,9,5.063,4.981,12.241-.107.192.173.416.3.237,10.541-14.723-11.956-16.69-14.93-17.953l-.193-.081c-.119-.209-.237-.41-.356-.615-4.365-8.024-16.3-15.46-27.921-14.169-27.653,3.073-27.618,27.588-27.618,27.588a.192.192,0,0,0,.371.077c.854-2.356,5.684-8.809,13.121-7.542a9.937,9.937,0,0,1,9.161,9.9A20.853,20.853,0,0,1,594.654,1091.837Z" transform="translate(-575.57 -1051.406)" fill="#64352d"/>
      </g>
    </g>
    <path id="패스_41" data-name="패스 41" d="M662.107,1125.1l.6,5.685.13-.025c2.652-.459,4.942-.027,5.4,2.626a4.874,4.874,0,0,1-3.971,5.634,4.936,4.936,0,0,1-.68.064l1.017,9.6c4.562-3.139,15.433-.542,17.161-.1l-2.5-23.367C669.114,1119.764,662.107,1125.1,662.107,1125.1Z" transform="translate(-35.199 -29.024)" fill="#64352d"/>
    <path id="패스_42" data-name="패스 42" d="M701.238,1137.487l-2.49-21.234c-7.452-3.157-7.707,6.047-7.707,6.047l2.5,23.367.048-.051a11.218,11.218,0,0,1,3.086-5.222A11.709,11.709,0,0,1,701.238,1137.487Z" transform="translate(-46.968 -26.108)" fill="#53312e"/>
    <text id="PEMIUM_BOOK_CAFE" data-name="PEMIUM BOOK CAFE" transform="translate(742.598 1125.839)" fill="#888787" font-size="7" font-family="Pretendard-Regular, Pretendard" letter-spacing="0.28em"><tspan x="-47.9" y="0">PEMIUM BOOK CAFE</tspan></text>
  </g>
</svg>
