<svg xmlns="http://www.w3.org/2000/svg" width="19.939" height="19.939" viewBox="0 0 19.939 19.939">
  <g id="그룹_664" data-name="그룹 664" transform="translate(-157.226 -227.195)">
    <path id="패스_204" data-name="패스 204" d="M253.218,340.332a1.005,1.005,0,1,1,2.011,0v6.874a1,1,0,0,1-1.005,1.005H238.306a1,1,0,0,1-1.005-1.005V331.288a1,1,0,0,1,1.005-1.005h6.874a1.005,1.005,0,1,1,0,2.011h-5.869V346.2h13.907Z" transform="translate(-80.075 -101.077)" fill="#64352d"/>
    <path id="패스_205" data-name="패스 205" d="M338.305,309.629a1.005,1.005,0,1,1,0-2.011h6.874a1,1,0,0,1,.489.127h0l.018.011,0,0,.01.006,0,0,.011.007.015.01h0l.019.013,0,0c.02.014.04.029.059.044h0a1.012,1.012,0,0,1,.144.144v0c.015.019.03.039.044.059l0,0,.013.019v0l.009.015.007.011,0,0,.006.01,0,0,.01.018h0a1,1,0,0,1,.127.489V315.5a1.005,1.005,0,1,1-2.011,0V311.05L336.62,318.6a1.005,1.005,0,1,1-1.421-1.422l7.554-7.554Z" transform="translate(-169.019 -80.423)" fill="#64352d"/>
  </g>
</svg>
