<svg xmlns="http://www.w3.org/2000/svg" width="60.889" height="48" viewBox="0 0 60.889 48">
  <g id="그룹_604" data-name="그룹 604" transform="translate(-3816.357 -1695.999)">
    <g id="그룹_600" data-name="그룹 600" transform="translate(3816.357 1695.999)">
      <path id="패스_189" data-name="패스 189" d="M3872.012,1737.133h-50.42a5.24,5.24,0,0,1-5.234-5.234v-30.665a5.241,5.241,0,0,1,5.234-5.234h50.42a5.241,5.241,0,0,1,5.234,5.234V1731.9A5.24,5.24,0,0,1,3872.012,1737.133Zm-50.42-39.678a3.783,3.783,0,0,0-3.779,3.779V1731.9a3.783,3.783,0,0,0,3.779,3.779h50.42a3.784,3.784,0,0,0,3.779-3.779v-30.665a3.784,3.784,0,0,0-3.779-3.779Z" transform="translate(-3816.357 -1695.999)" fill="#64352d"/>
    </g>
    <g id="그룹_601" data-name="그룹 601" transform="translate(3816.357 1729.947)">
      <path id="패스_190" data-name="패스 190" d="M3872,1739.724h-50.4a5.25,5.25,0,0,1-5.244-5.245v-1.214a.728.728,0,0,1,.727-.728h59.435a.728.728,0,0,1,.727.728v1.214A5.25,5.25,0,0,1,3872,1739.724Zm-54.189-5.731v.486a3.792,3.792,0,0,0,3.788,3.789H3872a3.793,3.793,0,0,0,3.79-3.789v-.486Z" transform="translate(-3816.357 -1732.538)" fill="#64352d"/>
    </g>
    <g id="그룹_602" data-name="그룹 602" transform="translate(3842.859 1735.677)">
      <path id="패스_191" data-name="패스 191" d="M3852.039,1747.028h-6.429a.727.727,0,0,1-.727-.727v-6.867a.728.728,0,0,1,.727-.727h6.429a.728.728,0,0,1,.728.727v6.867A.727.727,0,0,1,3852.039,1747.028Zm-5.7-1.456h4.974v-5.41h-4.974Z" transform="translate(-3844.882 -1738.706)" fill="#64352d"/>
    </g>
    <g id="그룹_603" data-name="그룹 603" transform="translate(3836.748 1742.543)">
      <path id="패스_192" data-name="패스 192" d="M3857.684,1747.552h-18.652a.728.728,0,0,1,0-1.456h18.652a.728.728,0,1,1,0,1.456Z" transform="translate(-3838.304 -1746.096)" fill="#64352d"/>
    </g>
  </g>
</svg>
