<svg xmlns="http://www.w3.org/2000/svg" width="48.388" height="51.105" viewBox="0 0 48.388 51.105">
  <g id="그룹_663" data-name="그룹 663" transform="translate(-1461.054 -1222)">
    <g id="그룹_650" data-name="그룹 650" transform="translate(1461.054 1230.082)">
      <g id="그룹_637" data-name="그룹 637">
        <g id="그룹_632" data-name="그룹 632" transform="translate(17.726)">
          <g id="그룹_631" data-name="그룹 631">
            <g id="그룹_630" data-name="그룹 630">
              <g id="그룹_629" data-name="그룹 629">
                <path id="패스_198" data-name="패스 198" d="M5740.757,1210.822h-.048l-17.619-.216a4.627,4.627,0,0,1-2.9-1.123,2.34,2.34,0,0,0-.918-.435,2.083,2.083,0,0,1-1.582-2.01v-18.931a2.07,2.07,0,0,1,.272-1.025l4.621-8.1a18.679,18.679,0,0,0,2.164-5.936l.431-2.368a3.264,3.264,0,0,1,2.221-2.77,3.368,3.368,0,0,1,.921-.112c1.793.022,3.23,2.16,4.274,6.357a10.019,10.019,0,0,1,.146,4.165l-1.206,6.926,12.931.159a3.9,3.9,0,0,1,3.886,3.734,3.925,3.925,0,0,0-1.263,6.053,3.8,3.8,0,0,0-1.264,5.936,3.807,3.807,0,0,0-1.264,5.936A3.807,3.807,0,0,1,5740.757,1210.822Zm-12.485-41.607a1.914,1.914,0,0,0-.5.063,1.873,1.873,0,0,0-1.186,1.575c0,.02,0,.04-.009.06l-.436,2.39a20.135,20.135,0,0,1-2.325,6.385l-4.623,8.1a.651.651,0,0,0-.086.323v18.931a.669.669,0,0,0,.517.638,3.743,3.743,0,0,1,1.473.717,3.217,3.217,0,0,0,2.016.8l17.619.216a2.387,2.387,0,0,0,.974-4.578.708.708,0,0,1,.29-1.358,2.387,2.387,0,0,0,.974-4.578.708.708,0,0,1,.28-1.358h.038a2.387,2.387,0,0,0,.944-4.578.707.707,0,0,1-.41-.8.72.72,0,0,1,.7-.561,2.387,2.387,0,0,0,2.415-2.431,2.473,2.473,0,0,0-2.487-2.344l-13.7-.168a.713.713,0,0,1-.539-.259.882.882,0,0,1-.2-.63l1.339-7.688a8.621,8.621,0,0,0-.127-3.579c-.808-3.247-1.924-5.271-2.917-5.284Z" transform="translate(-5717.688 -1167.799)" fill="#64352d"/>
              </g>
            </g>
          </g>
        </g>
        <g id="그룹_636" data-name="그룹 636" transform="translate(0 17.345)">
          <g id="그룹_635" data-name="그룹 635">
            <g id="그룹_634" data-name="그룹 634">
              <g id="그룹_633" data-name="그룹 633">
                <path id="패스_199" data-name="패스 199" d="M5704.593,1207.781a2.048,2.048,0,0,1-1.437-.581,1.99,1.99,0,0,1-.607-1.428l-.043-21.076a2.033,2.033,0,0,1,2.039-2.019l11.584-.023h0a2.043,2.043,0,0,1,1.437.583,1.976,1.976,0,0,1,.606,1.428l.043,21.075a1.984,1.984,0,0,1-.6,1.43,2.044,2.044,0,0,1-1.437.589l-11.583.023Zm11.538-23.711-11.583.023a.614.614,0,0,0-.625.6l.042,21.074a.581.581,0,0,0,.179.417.638.638,0,0,0,.448.18h0l11.583-.023a.637.637,0,0,0,.449-.182.572.572,0,0,0,.177-.417l-.042-21.076a.582.582,0,0,0-.18-.417.638.638,0,0,0-.448-.18Z" transform="translate(-5702.506 -1182.654)" fill="#64352d"/>
              </g>
            </g>
          </g>
        </g>
      </g>
      <g id="그룹_641" data-name="그룹 641" transform="translate(37.748 23.798)">
        <g id="그룹_640" data-name="그룹 640">
          <g id="그룹_639" data-name="그룹 639">
            <g id="그룹_638" data-name="그룹 638">
              <path id="패스_200" data-name="패스 200" d="M5741.635,1189.6h-6.092a.708.708,0,0,1,0-1.416h6.092a.708.708,0,0,1,0,1.416Z" transform="translate(-5734.835 -1188.18)" fill="#64352d"/>
            </g>
          </g>
        </g>
      </g>
      <g id="그룹_645" data-name="그룹 645" transform="translate(36.487 29.73)">
        <g id="그룹_644" data-name="그룹 644">
          <g id="그룹_643" data-name="그룹 643">
            <g id="그룹_642" data-name="그룹 642">
              <path id="패스_201" data-name="패스 201" d="M5740.555,1194.677h-6.092a.708.708,0,0,1,0-1.416h6.092a.708.708,0,0,1,0,1.416Z" transform="translate(-5733.755 -1193.261)" fill="#64352d"/>
            </g>
          </g>
        </g>
      </g>
      <g id="그룹_649" data-name="그룹 649" transform="translate(35.222 35.671)">
        <g id="그룹_648" data-name="그룹 648">
          <g id="그룹_647" data-name="그룹 647">
            <g id="그룹_646" data-name="그룹 646">
              <path id="패스_202" data-name="패스 202" d="M5739.47,1199.765h-6.091a.708.708,0,0,1,0-1.416h6.091a.708.708,0,1,1,0,1.416Z" transform="translate(-5732.671 -1198.349)" fill="#64352d"/>
            </g>
          </g>
        </g>
      </g>
    </g>
    <line id="선_45" data-name="선 45" x2="3.503" y2="4.671" transform="translate(1480.188 1225.503)" fill="none" stroke="#64352d" stroke-miterlimit="10" stroke-width="1.5"/>
    <line id="선_46" data-name="선 46" y2="6.422" transform="translate(1489.529 1222)" fill="none" stroke="#64352d" stroke-miterlimit="10" stroke-width="1.5"/>
    <line id="선_47" data-name="선 47" x1="4.446" y2="4.446" transform="translate(1495.479 1226.199)" fill="none" stroke="#64352d" stroke-miterlimit="10" stroke-width="1.5"/>
  </g>
</svg>
