<svg xmlns="http://www.w3.org/2000/svg" width="28.666" height="28.667" viewBox="0 0 28.666 28.667">
  <g id="그룹_441" data-name="그룹 441" transform="translate(162.204 -295.116)">
    <g id="그룹_440" data-name="그룹 440" transform="translate(-162.204 295.116)">
      <path id="패스_124" data-name="패스 124" d="M-147.872,297.7c3.828,0,4.281.014,5.792.084a7.943,7.943,0,0,1,2.662.494,4.43,4.43,0,0,1,1.648,1.073A4.443,4.443,0,0,1-136.7,301a7.936,7.936,0,0,1,.494,2.661c.068,1.511.084,1.964.084,5.792s-.014,4.281-.084,5.792a7.93,7.93,0,0,1-.494,2.661,4.429,4.429,0,0,1-1.073,1.648,4.443,4.443,0,0,1-1.648,1.073,7.938,7.938,0,0,1-2.662.494c-1.511.068-1.964.084-5.792.084s-4.281-.014-5.792-.084a7.929,7.929,0,0,1-2.661-.494,4.443,4.443,0,0,1-1.648-1.073,4.443,4.443,0,0,1-1.073-1.648,7.93,7.93,0,0,1-.494-2.661c-.068-1.511-.084-1.964-.084-5.792s.014-4.281.084-5.792a7.93,7.93,0,0,1,.494-2.661,4.443,4.443,0,0,1,1.073-1.648,4.443,4.443,0,0,1,1.648-1.073,7.935,7.935,0,0,1,2.661-.494c1.511-.069,1.964-.084,5.792-.084m0-2.583c-3.893,0-4.381.017-5.91.086a10.528,10.528,0,0,0-3.479.666,7.022,7.022,0,0,0-2.539,1.654,7.019,7.019,0,0,0-1.653,2.539,10.528,10.528,0,0,0-.666,3.479c-.069,1.529-.086,2.017-.086,5.91s.017,4.381.086,5.91a10.528,10.528,0,0,0,.666,3.479,7.034,7.034,0,0,0,1.653,2.539,7.022,7.022,0,0,0,2.539,1.654,10.527,10.527,0,0,0,3.479.666c1.529.069,2.017.086,5.91.086s4.381-.017,5.91-.086a10.527,10.527,0,0,0,3.479-.666,7.022,7.022,0,0,0,2.539-1.654,7.023,7.023,0,0,0,1.654-2.539,10.528,10.528,0,0,0,.666-3.479c.069-1.529.086-2.017.086-5.91s-.017-4.381-.086-5.91a10.528,10.528,0,0,0-.666-3.479,7.022,7.022,0,0,0-1.654-2.539,7.022,7.022,0,0,0-2.539-1.654,10.528,10.528,0,0,0-3.479-.666c-1.529-.069-2.017-.086-5.91-.086" transform="translate(162.204 -295.116)" fill="#64352d"/>
      <path id="패스_125" data-name="패스 125" d="M-148.519,301.442a7.361,7.361,0,0,0-7.361,7.361,7.36,7.36,0,0,0,7.361,7.361,7.361,7.361,0,0,0,7.361-7.361,7.361,7.361,0,0,0-7.361-7.361m0,12.137A4.778,4.778,0,0,1-153.3,308.8a4.777,4.777,0,0,1,4.778-4.778,4.777,4.777,0,0,1,4.778,4.778,4.777,4.777,0,0,1-4.778,4.778" transform="translate(162.852 -294.468)" fill="#64352d"/>
      <path id="패스_126" data-name="패스 126" d="M-140.383,301.338a1.72,1.72,0,0,1-1.72,1.72,1.72,1.72,0,0,1-1.72-1.72,1.721,1.721,0,0,1,1.72-1.72,1.719,1.719,0,0,1,1.72,1.72" transform="translate(164.086 -294.655)" fill="#64352d"/>
    </g>
  </g>
</svg>
