<svg id="그룹_442" data-name="그룹 442" xmlns="http://www.w3.org/2000/svg" width="39.378" height="27.742" viewBox="0 0 39.378 27.742">
  <path id="패스_127" data-name="패스 127" d="M41.219,349.986a4.948,4.948,0,0,0-3.482-3.5c-3.071-.828-15.385-.828-15.385-.828s-12.313,0-15.385.828a4.948,4.948,0,0,0-3.482,3.5c-.823,3.09-.823,9.539-.823,9.539s0,6.448.823,9.539a4.95,4.95,0,0,0,3.482,3.5c3.071.828,15.385.828,15.385.828s12.314,0,15.385-.828a4.948,4.948,0,0,0,3.482-3.5c.823-3.09.823-9.539.823-9.539S42.042,353.077,41.219,349.986Z" transform="translate(-2.664 -345.654)" fill="#64352d"/>
  <path id="패스_128" data-name="패스 128" d="M17.761,365.091v-11.71l10.292,5.855Z" transform="translate(-2.099 -345.365)" fill="#fff"/>
</svg>
