<?xml version="1.0" encoding="utf-8"?>
<!-- Generator: Adobe Illustrator 22.1.0, SVG Export Plug-In . SVG Version: 6.00 Build 0)  -->
<svg version="1.1" id="Layer_1" xmlns="http://www.w3.org/2000/svg" xmlns:xlink="http://www.w3.org/1999/xlink" x="0px" y="0px"
	 viewBox="0 0 14.2 14.2" style="enable-background:new 0 0 14.2 14.2;" xml:space="preserve">
<style type="text/css">
	.st0{fill:#F4E7E0;}
	.st1{fill:#EED8CE;}
</style>
<g>
	<g>
		<g>
			<path class="st0" d="M9.8,4.5c0,0.2,0.1,0.3,0.3,0.3s0.3-0.1,0.3-0.3c0-0.2-0.1-0.3-0.3-0.3C10,4.2,9.8,4.4,9.8,4.5z"/>
			<path class="st0" d="M4.1,6.9c0,0-1.3,2.1-0.2,4.3c0.3,0.6,0.7,1,1.1,1.4c1.7,1.5,4.1,1.6,5,1.6v-0.1c-1.2-0.2-2.2-0.7-3-1.4
				C6.3,12,5.8,11,5.8,9.9c0-2.2,1.3-3.7,2.1-4.3C8.7,5,8.3,4.2,8.3,4.2C7.8,4,7.7,3.3,7.7,3.1C7.7,3,7.7,3,7.8,3
				c0.4-0.1,0.7-0.1,1,0c0.3,0,0.5,0.3,0.5,0.3l0,0c0.1,0,0.3,0,0.6,0c0.4,0,0.8,0,1.3,0.1l0,0l0,0c0.1,0,0.2,0,0.3,0.1
				c0.1,0,0.3,0.1,0.5,0.1c0.7,0.3,1.5,0.9,0.8,2.1c0,0,0,0.1,0.1,0c1.8-2.5-2-2.8-2.5-3l0,0c0,0,0-0.1-0.1-0.1
				C9.6,1.2,7.5-0.1,5.6,0.1C0.9,0.7,0.9,4.8,0.9,4.8H1c0.1-0.4,1-1.5,2.2-1.3c0.9,0.1,1.5,0.8,1.5,1.7C4.7,5.2,4.7,6.1,4.1,6.9z"/>
		</g>
	</g>
	<g>
		<path class="st0" d="M9.6,7.6l0.1,1l0,0c0.4-0.1,0.8,0,0.9,0.4c0.1,0.4-0.2,0.9-0.7,1H9.8l0.2,1.6c0.8-0.5,2.6-0.1,2.9,0l-0.4-3.9
			C10.8,6.7,9.6,7.6,9.6,7.6z"/>
		<path class="st1" d="M14.2,10.2l-0.4-3.6c-1.3-0.5-1.3,1-1.3,1l0.4,3.9l0,0c0.1-0.3,0.2-0.6,0.5-0.9
			C13.7,10.5,13.9,10.3,14.2,10.2z"/>
	</g>
</g>
</svg>
