<svg xmlns="http://www.w3.org/2000/svg" width="186.16" height="160.502" viewBox="0 0 186.16 160.502">
  <g id="그룹_22" data-name="그룹 22" transform="translate(1554.927 108.473)">
    <g id="그룹_17" data-name="그룹 17" transform="translate(-1505.683 -108.473)">
      <path id="패스_11" data-name="패스 11" d="M-302.035,208.646a1.948,1.948,0,0,0,1.952,1.944,1.948,1.948,0,0,0,1.952-1.944,1.948,1.948,0,0,0-1.952-1.944A1.948,1.948,0,0,0-302.035,208.646Z" transform="translate(360.837 -179.522)" fill="#64352d"/>
      <path id="패스_12" data-name="패스 12" d="M-962.638-63.433s-8.747,14.072-1.012,28.312a32.094,32.094,0,0,0,7.436,9.163c11.327,9.675,27.39,10.531,32.731,10.53a.192.192,0,0,0,.034-.381c-7.731-1.62-14.651-4.827-19.738-9.426a25.332,25.332,0,0,1-8.751-18.634c-.31-14.576,8.783-24.292,14.021-28.354a7.861,7.861,0,0,0,2.572-9.556c-3.124-.778-3.748-5.288-3.873-7.061a.977.977,0,0,1,.644-.982A9.383,9.383,0,0,1-932.105-90a8.593,8.593,0,0,1,3.593,2.385l.216-.013c.524-.028,1.976-.094,3.916-.075a56.441,56.441,0,0,1,8.521.68v.007s.116.015.324.048c.591.1,1.177.221,1.753.355a25.2,25.2,0,0,1,3.116.957c4.626,1.771,10.025,5.64,5.549,13.636-.119.214.192.463.335.264,11.742-16.4-13.318-18.593-16.632-20l-.214-.09c-.133-.232-.265-.456-.4-.684-4.862-8.939-18.158-17.223-31.1-15.785-30.805,3.423-30.767,30.732-30.767,30.732a.214.214,0,0,0,.414.085c.951-2.625,6.332-9.813,14.617-8.4a11.069,11.069,0,0,1,10.205,11.031A23.234,23.234,0,0,1-962.638-63.433Z" transform="translate(983.897 108.473)" fill="#64352d"/>
    </g>
    <path id="패스_13" data-name="패스 13" d="M-320.717,440.982l.672,6.334.145-.028c2.955-.512,5.505-.03,6.017,2.925a5.43,5.43,0,0,1-4.424,6.276,5.443,5.443,0,0,1-.758.071l1.134,10.691c5.082-3.5,17.192-.6,19.117-.113l-2.781-26.031C-312.911,435.034-320.717,440.982-320.717,440.982Z" transform="translate(-1127.775 -499.69)" fill="#64352d"/>
    <path id="패스_14" data-name="패스 14" d="M-87.62,407.82l-2.773-23.655c-8.3-3.517-8.586,6.736-8.586,6.736l2.781,26.031.053-.056a12.5,12.5,0,0,1,3.438-5.817A13.044,13.044,0,0,1-87.62,407.82Z" transform="translate(-1330.391 -449.483)" fill="#53312e"/>
    <g id="그룹_19" data-name="그룹 19" transform="translate(-1554.927 -11.104)">
      <g id="그룹_18" data-name="그룹 18" transform="translate(0)">
        <path id="패스_15" data-name="패스 15" d="M-1553.747,1032.5h31.671a1.18,1.18,0,0,1,1.18,1.18v6.253a1.18,1.18,0,0,1-1.18,1.18h-21.862a1.18,1.18,0,0,0-1.18,1.18v7.688a1.18,1.18,0,0,0,1.18,1.18h18.592a1.18,1.18,0,0,1,1.18,1.18v6.253a1.18,1.18,0,0,1-1.18,1.18h-18.592a1.18,1.18,0,0,0-1.18,1.18v17.191a1.18,1.18,0,0,1-1.18,1.18h-7.448a1.18,1.18,0,0,1-1.18-1.18v-44.467A1.18,1.18,0,0,1-1553.747,1032.5Z" transform="translate(1554.927 -1031.476)" fill="#64352d"/>
        <path id="패스_16" data-name="패스 16" d="M-1109.26,1162.479a18.828,18.828,0,0,1,18.55-19,18.829,18.829,0,0,1,18.551,19,18.784,18.784,0,0,1-18.551,19A18.783,18.783,0,0,1-1109.26,1162.479Zm27.758,0a9.342,9.342,0,0,0-9.208-9.433,9.342,9.342,0,0,0-9.208,9.433,9.3,9.3,0,0,0,9.208,9.434A9.3,9.3,0,0,0-1081.5,1162.479Z" transform="translate(1147.693 -1132.878)" fill="#64352d"/>
        <path id="패스_17" data-name="패스 17" d="M-581.955,1151.18h6.514a1.18,1.18,0,0,1,1.18,1.18h0a1.175,1.175,0,0,0,1.836.981,14.55,14.55,0,0,1,8.046-2.182,1.183,1.183,0,0,1,1.194,1.184v7.089a1.189,1.189,0,0,1-1.271,1.175c-4.922-.25-9.339,3.126-9.339,8.417v17.55a1.18,1.18,0,0,1-1.18,1.18h-6.982a1.18,1.18,0,0,1-1.18-1.18V1152.36A1.18,1.18,0,0,1-581.955,1151.18Z" transform="translate(666.94 -1139.899)" fill="#64352d"/>
        <path id="패스_18" data-name="패스 18" d="M-307.7,1158.583c0-9.844,6.34-19.141,17.216-19.072,11.609.067,19.775,9.21,17.025,22.389a1.174,1.174,0,0,1-1.153.922h-21.271a1.183,1.183,0,0,0-1.063,1.705,9.339,9.339,0,0,0,8.265,4.721,13.4,13.4,0,0,0,7.291-2.136,1.186,1.186,0,0,1,1.475-.02l5.22,4.086a1.182,1.182,0,0,1,.1,1.782c-3.63,3.451-9.014,4.833-15.017,4.833C-300.43,1177.792-307.7,1168.016-307.7,1158.583Zm23.687-4.033a1.184,1.184,0,0,0,1.167-1.384c-.4-2.382-2.547-5.247-7.3-5.247a7.093,7.093,0,0,0-7.2,5.13,1.187,1.187,0,0,0,1.14,1.5Z" transform="translate(415.261 -1129.256)" fill="#64352d"/>
        <path id="패스_19" data-name="패스 19" d="M210.656,1050.614a18.556,18.556,0,1,1-37.1,0v-28.831a1.18,1.18,0,0,1,1.18-1.18h6.981a1.18,1.18,0,0,1,1.18,1.18v11.4a1.176,1.176,0,0,0,1.888.941,11.973,11.973,0,0,1,7.321-2.516A18.828,18.828,0,0,1,210.656,1050.614Zm-9.342,0a9.211,9.211,0,1,0-9.208,9.434A9.342,9.342,0,0,0,201.314,1050.614Z" transform="translate(-24.496 -1020.603)" fill="#64352d"/>
      </g>
    </g>
    <g id="그룹_21" data-name="그룹 21" transform="translate(-1529.841 45.274)">
      <g id="그룹_20" data-name="그룹 20" transform="translate(0)">
        <path id="패스_20" data-name="패스 20" d="M-1264.035,1675.414h2.225a1.983,1.983,0,0,1,2.234,2.079,1.991,1.991,0,0,1-2.225,2.09h-1.42v2.378h-.814Zm2.2,3.446a1.274,1.274,0,0,0,1.456-1.366c0-.786-.416-1.356-1.466-1.356h-1.374v2.722Z" transform="translate(1264.035 -1675.323)" fill="#888787"/>
        <path id="패스_21" data-name="패스 21" d="M-1169.151,1675.414h2.225c1.537,0,2.234.849,2.234,2.016a1.792,1.792,0,0,1-1.22,1.836l1.474,2.695h-.95l-1.365-2.55-.163.009h-1.42v2.542h-.814Zm2.2,3.264c1.04,0,1.457-.47,1.457-1.248s-.417-1.293-1.465-1.293h-1.375v2.541Z" transform="translate(1177.334 -1675.323)" fill="#888787"/>
        <path id="패스_22" data-name="패스 22" d="M-1073.823,1675.414h3.97v.723h-3.156v2.189h2.948v.714h-2.948v2.2h3.2v.724h-4.016Z" transform="translate(1090.227 -1675.323)" fill="#888787"/>
        <path id="패스_23" data-name="패스 23" d="M-981.935,1675.414l2.206,5.39h.082l2.206-5.39h.977v6.547h-.769v-4.947h-.063l-2.034,4.947h-.724l-2.036-4.947h-.055v4.947h-.768v-6.547Z" transform="translate(1007.155 -1675.323)" fill="#888787"/>
        <path id="패스_24" data-name="패스 24" d="M-860.6,1681.962h-.814v-6.547h.814Z" transform="translate(896.132 -1675.323)" fill="#888787"/>
        <path id="패스_25" data-name="패스 25" d="M-800.063,1675.414v4.332a2.333,2.333,0,0,1-2.55,2.333,2.333,2.333,0,0,1-2.55-2.333v-4.332h.814v4.268a1.6,1.6,0,0,0,1.736,1.638,1.591,1.591,0,0,0,1.736-1.638v-4.268Z" transform="translate(844.735 -1675.323)" fill="#888787"/>
        <path id="패스_26" data-name="패스 26" d="M-698.288,1675.414l2.206,5.39H-696l2.206-5.39h.977v6.547h-.769v-4.947h-.063l-2.034,4.947h-.724l-2.036-4.947h-.054v4.947h-.768v-6.547Z" transform="translate(747.969 -1675.323)" fill="#888787"/>
        <path id="패스_27" data-name="패스 27" d="M-520.785,1675.414h2.3c1.375,0,2.017.768,2.017,1.736a1.315,1.315,0,0,1-1.067,1.374v.064a1.531,1.531,0,0,1,1.329,1.637c0,.986-.652,1.737-2.2,1.737h-2.378Zm3.536,1.745c0-.57-.38-1.021-1.239-1.021h-1.483v2.143h1.456A1.154,1.154,0,0,0-517.249,1677.159Zm.254,3.057a1.266,1.266,0,0,0-1.375-1.23h-1.6v2.252h1.556C-517.394,1681.238-517,1680.786-517,1680.216Z" transform="translate(584.881 -1675.323)" fill="#888787"/>
        <path id="패스_28" data-name="패스 28" d="M-424.355,1681.089c-1.683,0-2.894-1.293-2.894-3.364s1.211-3.365,2.894-3.365,2.894,1.294,2.894,3.365S-422.683,1681.089-424.355,1681.089Zm0-5.969c-1.185,0-2.107.913-2.107,2.6s.923,2.6,2.107,2.6,2.106-.913,2.106-2.6S-423.171,1675.12-424.355,1675.12Z" transform="translate(499.411 -1674.36)" fill="#888787"/>
        <path id="패스_29" data-name="패스 29" d="M-316.364,1681.089c-1.682,0-2.894-1.293-2.894-3.364s1.212-3.365,2.894-3.365,2.894,1.294,2.894,3.365S-314.691,1681.089-316.364,1681.089Zm0-5.969c-1.185,0-2.107.913-2.107,2.6s.923,2.6,2.107,2.6,2.107-.913,2.107-2.6S-315.179,1675.12-316.364,1675.12Z" transform="translate(400.733 -1674.36)" fill="#888787"/>
        <path id="패스_30" data-name="패스 30" d="M-208.326,1675.414h.814v3.237h.082l2.911-3.237h1.067l-2.74,2.957,2.74,3.591h-.994l-2.252-3.03-.814.922v2.108h-.814Z" transform="translate(299.367 -1675.323)" fill="#888787"/>
        <path id="패스_31" data-name="패스 31" d="M-54.717,1675.12c-1.185,0-2.107.913-2.107,2.6s.923,2.6,2.107,2.6a1.783,1.783,0,0,0,1.827-1.384h.814a2.555,2.555,0,0,1-2.64,2.143c-1.683,0-2.894-1.293-2.894-3.364s1.211-3.365,2.894-3.365a2.56,2.56,0,0,1,2.64,2.152h-.814A1.776,1.776,0,0,0-54.717,1675.12Z" transform="translate(161.65 -1674.36)" fill="#888787"/>
        <path id="패스_32" data-name="패스 32" d="M43.2,1681.962l2.4-6.547h.858l2.4,6.547H47.99l-.652-1.845H44.706l-.66,1.845Zm3.888-2.56-1.04-2.93H45.99l-1.039,2.93Z" transform="translate(69.536 -1675.323)" fill="#888787"/>
        <path id="패스_33" data-name="패스 33" d="M148.993,1675.414h3.944v.723h-3.13v2.189h2.831v.714h-2.831v2.921h-.814Z" transform="translate(-27.137 -1675.323)" fill="#888787"/>
        <path id="패스_34" data-name="패스 34" d="M238.757,1675.414h3.97v.723h-3.156v2.189h2.948v.714h-2.948v2.2h3.2v.724h-4.016Z" transform="translate(-109.16 -1675.323)" fill="#888787"/>
      </g>
    </g>
  </g>
</svg>
