<svg xmlns="http://www.w3.org/2000/svg" width="171.875" height="55.105" viewBox="0 0 171.875 55.105">
  <g id="그룹_164" data-name="그룹 164" transform="translate(-575.57 -1051.406)">
    <g id="그룹_25" data-name="그룹 25" transform="translate(637.192 1063.315)">
      <path id="패스_35" data-name="패스 35" d="M733.708,1083.386h18.757a.7.7,0,0,1,.7.7v3.7a.7.7,0,0,1-.7.7H739.517a.7.7,0,0,0-.7.7v4.554a.7.7,0,0,0,.7.7h11.011a.7.7,0,0,1,.7.7v3.7a.7.7,0,0,1-.7.7H739.517a.7.7,0,0,0-.7.7v10.181a.7.7,0,0,1-.7.7h-4.411a.7.7,0,0,1-.7-.7v-26.335A.7.7,0,0,1,733.708,1083.386Z" transform="translate(-733.009 -1082.779)" fill="#64352d"/>
      <path id="패스_36" data-name="패스 36" d="M791.163,1109.122a10.99,10.99,0,1,1,10.986,11.255A11.151,11.151,0,0,1,791.163,1109.122Zm16.44,0a5.455,5.455,0,1,0-5.454,5.587A5.533,5.533,0,0,0,807.6,1109.122Z" transform="translate(-768.401 -1091.592)" fill="#64352d"/>
      <path id="패스_37" data-name="패스 37" d="M860.515,1098.882h3.858a.7.7,0,0,1,.7.7h0a.7.7,0,0,0,1.088.581,8.613,8.613,0,0,1,4.766-1.292.7.7,0,0,1,.707.7v4.2a.7.7,0,0,1-.753.7,5.033,5.033,0,0,0-5.531,4.984v10.394a.7.7,0,0,1-.7.7h-4.135a.7.7,0,0,1-.7-.7v-20.262A.7.7,0,0,1,860.515,1098.882Z" transform="translate(-810.183 -1092.202)" fill="#64352d"/>
      <path id="패스_38" data-name="패스 38" d="M895.757,1108.646c0-5.83,3.755-11.336,10.2-11.3,6.875.04,11.712,5.455,10.083,13.26a.7.7,0,0,1-.683.547h-12.6a.7.7,0,0,0-.63,1.01,5.531,5.531,0,0,0,4.9,2.8,7.938,7.938,0,0,0,4.318-1.265.7.7,0,0,1,.874-.012l3.091,2.42a.7.7,0,0,1,.057,1.055c-2.15,2.044-5.338,2.862-8.893,2.862C900.065,1120.022,895.757,1114.232,895.757,1108.646Zm14.028-2.389a.7.7,0,0,0,.691-.82c-.24-1.411-1.509-3.107-4.326-3.107a4.2,4.2,0,0,0-4.266,3.038.7.7,0,0,0,.675.889Z" transform="translate(-832.057 -1091.276)" fill="#64352d"/>
      <path id="패스_39" data-name="패스 39" d="M980.528,1099.608a10.989,10.989,0,1,1-21.972,0v-17.075a.7.7,0,0,1,.7-.7h4.135a.7.7,0,0,1,.7.7v6.753a.7.7,0,0,0,1.118.557,7.093,7.093,0,0,1,4.336-1.49A11.151,11.151,0,0,1,980.528,1099.608Zm-5.532,0a5.455,5.455,0,1,0-5.454,5.587A5.533,5.533,0,0,0,975,1099.608Z" transform="translate(-870.276 -1081.834)" fill="#64352d"/>
    </g>
    <g id="그룹_27" data-name="그룹 27" transform="translate(575.57 1051.406)">
      <g id="그룹_26" data-name="그룹 26">
        <ellipse id="타원_4" data-name="타원 4" cx="1.156" cy="1.151" rx="1.156" ry="1.151" transform="translate(34.825 16.097)" fill="#64352d"/>
        <path id="패스_40" data-name="패스 40" d="M588.161,1078.08s-5.181,8.334-.6,16.767a19.008,19.008,0,0,0,4.4,5.427c6.708,5.73,16.222,6.237,19.385,6.236a.114.114,0,0,0,.02-.226,25.068,25.068,0,0,1-11.69-5.582,15,15,0,0,1-5.182-11.036c-.184-8.632,5.2-14.387,8.3-16.792a4.656,4.656,0,0,0,1.523-5.659c-1.85-.461-2.22-3.132-2.294-4.182a.579.579,0,0,1,.382-.582,5.555,5.555,0,0,1,3.831-.1,5.086,5.086,0,0,1,2.128,1.412l.128-.007c.31-.017,1.17-.056,2.319-.045a33.4,33.4,0,0,1,5.046.4v0s.069.009.192.028c.35.062.7.131,1.038.211a14.86,14.86,0,0,1,1.846.567c2.739,1.049,5.937,3.34,3.286,8.076-.07.127.114.274.2.156,6.955-9.714-7.888-11.011-9.85-11.845l-.127-.053c-.078-.138-.157-.271-.235-.406-2.88-5.294-10.754-10.2-18.421-9.348-18.244,2.027-18.221,18.2-18.221,18.2a.127.127,0,0,0,.245.051c.563-1.555,3.75-5.812,8.657-4.976a6.556,6.556,0,0,1,6.044,6.533A13.757,13.757,0,0,1,588.161,1078.08Z" transform="translate(-575.57 -1051.406)" fill="#64352d"/>
      </g>
    </g>
    <path id="패스_41" data-name="패스 41" d="M662.107,1124.307l.4,3.751.086-.017c1.75-.3,3.261-.018,3.564,1.732a3.192,3.192,0,0,1-3.069,3.759l.671,6.332c3.01-2.071,10.182-.357,11.322-.067l-1.647-15.417C666.73,1120.784,662.107,1124.307,662.107,1124.307Z" transform="translate(-52.666 -43.428)" fill="#64352d"/>
    <path id="패스_42" data-name="패스 42" d="M697.768,1130.038l-1.643-14.01c-4.916-2.083-5.085,3.99-5.085,3.99l1.647,15.417.032-.034a7.4,7.4,0,0,1,2.036-3.445A7.726,7.726,0,0,1,697.768,1130.038Z" transform="translate(-70.275 -39.064)" fill="#53312e"/>
    <text id="PEMIUM_BOOK_CAFE" data-name="PEMIUM BOOK CAFE" transform="translate(690.1 1098.895)" fill="#888787" font-size="5" font-family="Pretendard-Regular, Pretendard" letter-spacing="0.28em"><tspan x="-34.215" y="0">PEMIUM BOOK CAFE</tspan></text>
  </g>
</svg>
